<svg width="6" height="5" viewBox="0 0 6 5" fill="none" xmlns="http://www.w3.org/2000/svg">
<path d="M1.36129 1.42155V4.85236H0.444928V1.42155H1.36129ZM0.387854 0.527384C0.387854 0.39421 0.434359 0.284289 0.527369 0.197621C0.620379 0.110952 0.745097 0.0676178 0.901523 0.0676178C1.05584 0.0676178 1.1795 0.110952 1.27251 0.197621C1.36763 0.284289 1.41519 0.39421 1.41519 0.527384C1.41519 0.660558 1.36763 0.770479 1.27251 0.857147C1.1795 0.943816 1.05584 0.98715 0.901523 0.98715C0.745097 0.98715 0.620379 0.943816 0.527369 0.857147C0.434359 0.770479 0.387854 0.660558 0.387854 0.527384ZM3.13998 2.154V4.85236H2.22679V1.42155H3.08291L3.13998 2.154ZM3.00681 3.01646H2.75949C2.75949 2.7628 2.79225 2.5345 2.85778 2.33157C2.92331 2.12652 3.01526 1.95213 3.13364 1.80839C3.25202 1.66253 3.39259 1.55155 3.55536 1.47545C3.72024 1.39724 3.90414 1.35813 4.10708 1.35813C4.26773 1.35813 4.41464 1.38139 4.54782 1.42789C4.68099 1.4744 4.79514 1.54838 4.89026 1.64985C4.9875 1.75131 5.06149 1.88554 5.11222 2.05254C5.16507 2.21953 5.19149 2.42352 5.19149 2.6645V4.85236H4.27196V2.66133C4.27196 2.50913 4.25082 2.39076 4.20854 2.3062C4.16626 2.22165 4.10391 2.16246 4.02146 2.12864C3.94114 2.0927 3.84179 2.07473 3.72341 2.07473C3.6008 2.07473 3.49405 2.09904 3.40316 2.14766C3.31438 2.19628 3.24039 2.26393 3.1812 2.35059C3.12413 2.43515 3.08079 2.5345 3.0512 2.64865C3.02161 2.7628 3.00681 2.8854 3.00681 3.01646Z" fill="black"/>
</svg>
