<svg width="6" height="7" viewBox="0 0 6 7" fill="none" xmlns="http://www.w3.org/2000/svg">
<path d="M3.01763 1.72992C2.17737 1.72992 1.49961 2.40768 1.49961 3.24794C1.49961 4.0882 2.17737 4.76596 3.01763 4.76596C3.8579 4.76596 4.53566 4.0882 4.53566 3.24794C4.53566 2.40768 3.8579 1.72992 3.01763 1.72992ZM3.01763 4.23485C2.47463 4.23485 2.03072 3.79226 2.03072 3.24794C2.03072 2.70362 2.47331 2.26103 3.01763 2.26103C3.56195 2.26103 4.00455 2.70362 4.00455 3.24794C4.00455 3.79226 3.56063 4.23485 3.01763 4.23485ZM4.95182 1.66783C4.95182 1.86468 4.79328 2.0219 4.59775 2.0219C4.4009 2.0219 4.24368 1.86336 4.24368 1.66783C4.24368 1.47229 4.40222 1.31375 4.59775 1.31375C4.79328 1.31375 4.95182 1.47229 4.95182 1.66783ZM5.95723 2.02718C5.93477 1.55288 5.82643 1.13275 5.47897 0.786607C5.13282 0.440462 4.71269 0.332126 4.23839 0.308345C3.74956 0.2806 2.28439 0.2806 1.79555 0.308345C1.32258 0.330805 0.902446 0.43914 0.554979 0.785286C0.207512 1.13143 0.100498 1.55156 0.0767166 2.02586C0.0489721 2.51469 0.0489721 3.97987 0.0767166 4.4687C0.0991764 4.943 0.207512 5.36313 0.554979 5.70928C0.902446 6.05542 1.32126 6.16376 1.79555 6.18754C2.28439 6.21528 3.74956 6.21528 4.23839 6.18754C4.71269 6.16508 5.13282 6.05674 5.47897 5.70928C5.82511 5.36313 5.93345 4.943 5.95723 4.4687C5.98497 3.97987 5.98497 2.51601 5.95723 2.02718ZM5.32571 4.9932C5.22266 5.25215 5.02317 5.45165 4.7629 5.55602C4.37315 5.7106 3.44833 5.67492 3.01763 5.67492C2.58693 5.67492 1.6608 5.70927 1.27237 5.55602C1.01342 5.45297 0.813928 5.25347 0.709556 4.9932C0.554979 4.60346 0.59065 3.67864 0.59065 3.24794C0.59065 2.81724 0.5563 1.8911 0.709556 1.50268C0.812607 1.24373 1.0121 1.04423 1.27237 0.939863C1.66212 0.785286 2.58693 0.820958 3.01763 0.820958C3.44833 0.820958 4.37447 0.786607 4.7629 0.939863C5.02184 1.04291 5.22134 1.24241 5.32571 1.50268C5.48029 1.89242 5.44462 2.81724 5.44462 3.24794C5.44462 3.67864 5.48029 4.60478 5.32571 4.9932Z" fill="black"/>
</svg>
