<svg width="7" height="7" viewBox="0 0 7 7" fill="none" xmlns="http://www.w3.org/2000/svg">
<path d="M6.25319 1.92728C6.25748 1.98737 6.25748 2.04747 6.25748 2.10756C6.25748 3.94028 4.86255 6.05201 2.31303 6.05201C1.52757 6.05201 0.797917 5.82451 0.184143 5.42966C0.295742 5.44253 0.403034 5.44682 0.518927 5.44682C1.16703 5.44682 1.76364 5.22793 2.24006 4.85451C1.63058 4.84163 1.11982 4.44247 0.94384 3.89307C1.02969 3.90594 1.11553 3.91453 1.20567 3.91453C1.33014 3.91453 1.45462 3.89735 1.5705 3.86732C0.935266 3.73855 0.458827 3.18058 0.458827 2.50672V2.48956C0.643381 2.59257 0.858004 2.65695 1.08547 2.66552C0.712055 2.41658 0.467414 1.99166 0.467414 1.51094C0.467414 1.25342 0.536075 1.01736 0.656262 0.811334C1.33871 1.65259 2.36453 2.20197 3.5148 2.26207C3.49335 2.15906 3.48047 2.05176 3.48047 1.94446C3.48047 1.18045 4.09854 0.558105 4.86682 0.558105C5.26598 0.558105 5.62652 0.725497 5.87976 0.995901C6.19307 0.935814 6.49352 0.819921 6.75964 0.661117C6.65662 0.983032 6.43773 1.25344 6.15016 1.42511C6.42915 1.39508 6.69956 1.3178 6.94849 1.21051C6.75967 1.48519 6.52359 1.72984 6.25319 1.92728Z" fill="black"/>
</svg>
