<svg width="95" height="26" viewBox="0 0 95 26" fill="none" xmlns="http://www.w3.org/2000/svg">
<path d="M15.0062 12.3175C14.9829 9.52991 17.2877 8.17504 17.3889 8.11275C16.0808 6.21283 14.0563 5.94809 13.3477 5.92473C11.6502 5.74564 9.99947 6.94477 9.13516 6.94477C8.25528 6.94477 6.91599 5.94809 5.48326 5.97145C3.63785 6.00259 1.90144 7.06935 0.959268 8.73568C-0.99516 12.1228 0.460928 17.1062 2.33749 19.8471C3.27966 21.1864 4.36978 22.6892 5.8103 22.6347C7.21188 22.5802 7.74136 21.7392 9.43105 21.7392C11.1129 21.7392 11.6035 22.6347 13.0674 22.6035C14.578 22.5802 15.5201 21.2565 16.4312 19.9016C17.5135 18.3677 17.9495 16.8493 17.9651 16.7714C17.9262 16.7558 15.0374 15.6501 15.0062 12.3175" fill="white"/>
<path d="M12.2426 4.1258C12.9979 3.18362 13.5118 1.89884 13.3716 0.590698C12.2815 0.637418 10.9111 1.34599 10.1246 2.2726C9.43162 3.09019 8.8087 4.42169 8.96443 5.67532C10.1947 5.76876 11.4561 5.0524 12.2426 4.1258" fill="white"/>
<path d="M35.3448 22.4398H33.3826L32.3081 19.0605H28.5705L27.5505 22.4398H25.6428L29.3414 10.9391H31.6306L35.3448 22.4398ZM31.9888 17.6433L31.0155 14.6455C30.9143 14.334 30.7196 13.6177 30.4393 12.4808H30.4004C30.2836 12.9714 30.1045 13.6955 29.8553 14.6455L28.8975 17.6433H31.9888Z" fill="white"/>
<path d="M44.8523 18.196C44.8523 19.6054 44.4708 20.7189 43.6999 21.5365C43.0147 22.2684 42.1581 22.6266 41.1459 22.6266C40.048 22.6266 39.2615 22.2373 38.7788 21.4508V25.8035H36.9334V16.8723C36.9334 15.9846 36.91 15.0814 36.8633 14.147H38.4829L38.5841 15.4629H38.6153C39.2304 14.474 40.1648 13.9757 41.4106 13.9757C42.3917 13.9757 43.2015 14.365 43.8556 15.1359C44.5253 15.9146 44.8523 16.9268 44.8523 18.196V18.196ZM42.9757 18.2583C42.9757 17.4485 42.7966 16.7867 42.4307 16.265C42.0336 15.7199 41.4963 15.4474 40.8266 15.4474C40.375 15.4474 39.9623 15.6031 39.5886 15.899C39.2226 16.2027 38.9734 16.592 38.8644 17.0825C38.8099 17.3084 38.7788 17.4952 38.7788 17.6432V19.0292C38.7788 19.6288 38.9657 20.1427 39.3316 20.5554C39.6976 20.968 40.1804 21.1783 40.7721 21.1783C41.4651 21.1783 42.0024 20.9057 42.3917 20.3763C42.7811 19.839 42.9757 19.1382 42.9757 18.2583V18.2583Z" fill="white"/>
<path d="M54.3829 18.196C54.3829 19.6054 54.0014 20.7189 53.2305 21.5365C52.5453 22.2684 51.6888 22.6266 50.6765 22.6266C49.5786 22.6266 48.7922 22.2373 48.3094 21.4508V25.8035H46.464V16.8723C46.464 15.9846 46.4406 15.0814 46.3939 14.147H48.0135L48.1148 15.4629H48.1459C48.761 14.474 49.6954 13.9757 50.9413 13.9757C51.9224 13.9757 52.7322 14.365 53.3863 15.1359C54.0559 15.9146 54.3829 16.9268 54.3829 18.196ZM52.5064 18.2583C52.5064 17.4485 52.3273 16.7867 51.9613 16.265C51.5642 15.7199 51.0269 15.4474 50.3573 15.4474C49.9057 15.4474 49.493 15.6031 49.1192 15.899C48.7532 16.2027 48.5119 16.592 48.3951 17.0825C48.3406 17.3084 48.3094 17.4952 48.3094 17.6432V19.0292C48.3094 19.6288 48.4963 20.1427 48.8623 20.5554C49.2282 20.968 49.711 21.1783 50.3028 21.1783C50.9958 21.1783 51.5408 20.9057 51.9224 20.3763C52.3195 19.839 52.5064 19.1382 52.5064 18.2583V18.2583Z" fill="white"/>
<path d="M65.0503 19.2164C65.0503 20.1975 64.7077 20.9917 64.0303 21.6069C63.2828 22.2765 62.2394 22.6113 60.9001 22.6113C59.662 22.6113 58.6731 22.3699 57.9256 21.895L58.3539 20.361C59.1637 20.836 60.0513 21.0774 61.0169 21.0774C61.7099 21.0774 62.2549 20.9216 62.6365 20.6102C63.0258 20.2987 63.2205 19.8782 63.2205 19.3565C63.2205 18.8894 63.0569 18.5 62.7455 18.1808C62.4262 17.8615 61.8967 17.5656 61.157 17.2931C59.1247 16.5378 58.1203 15.4399 58.1203 13.9994C58.1203 13.0572 58.4784 12.2863 59.187 11.679C59.8956 11.0794 60.8378 10.7758 62.0135 10.7758C63.0569 10.7758 63.929 10.9548 64.622 11.3208L64.1548 12.8158C63.5008 12.4654 62.7688 12.2864 61.9435 12.2864C61.2972 12.2864 60.7833 12.4499 60.4173 12.7613C60.1136 13.0494 59.9579 13.392 59.9579 13.8047C59.9579 14.2564 60.137 14.6379 60.4874 14.926C60.7911 15.1985 61.3517 15.4944 62.1615 15.8137C63.1504 16.2108 63.8745 16.678 64.3417 17.2152C64.8167 17.7525 65.0503 18.4222 65.0503 19.2164" fill="white"/>
<path d="M71.1554 15.5333H69.1231V19.559C69.1231 20.579 69.4813 21.0929 70.1976 21.0929C70.5247 21.0929 70.7972 21.0618 71.0152 21.0073L71.0697 22.4088C70.7038 22.5412 70.2288 22.6113 69.637 22.6113C68.9051 22.6113 68.3444 22.3855 67.9317 21.9417C67.5191 21.4978 67.3166 20.7503 67.3166 19.7069V15.5255H66.1097V14.1473H67.3166V12.6289L69.1231 12.0839V14.1473H71.1554V15.5333" fill="white"/>
<path d="M80.297 18.2272C80.297 19.5042 79.931 20.5476 79.2069 21.3652C78.4438 22.2061 77.4315 22.6266 76.1701 22.6266C74.9554 22.6266 73.9821 22.2217 73.2579 21.4197C72.5338 20.6177 72.1756 19.5976 72.1756 18.3674C72.1756 17.0826 72.5494 16.0314 73.2891 15.2138C74.0366 14.3962 75.0411 13.9835 76.3025 13.9835C77.5172 13.9835 78.4983 14.3884 79.238 15.1982C79.9466 15.9769 80.297 16.9891 80.297 18.2272V18.2272ZM78.3893 18.2661C78.3893 17.503 78.2258 16.8568 77.8987 16.3117C77.5094 15.6498 76.9565 15.3228 76.2402 15.3228C75.5005 15.3228 74.932 15.6498 74.5505 16.3117C74.2157 16.8568 74.0599 17.5186 74.0599 18.3051C74.0599 19.0681 74.2235 19.7222 74.5505 20.2595C74.9476 20.9213 75.5082 21.2484 76.2246 21.2484C76.9254 21.2484 77.4782 20.9136 77.8831 20.2439C78.218 19.6833 78.3893 19.0292 78.3893 18.2661V18.2661Z" fill="white"/>
<path d="M86.2922 15.7666C86.1131 15.7355 85.9184 15.7199 85.7082 15.7199C85.0619 15.7199 84.5558 15.9613 84.2054 16.4518C83.9017 16.8801 83.746 17.4329 83.746 18.087V22.4397H81.9006V16.7555C81.9006 15.7978 81.885 14.9257 81.8461 14.147H83.4501L83.5202 15.7355H83.5747C83.7694 15.1904 84.073 14.7466 84.4935 14.4195C84.9062 14.1237 85.35 13.9757 85.825 13.9757C85.9963 13.9757 86.152 13.9913 86.2844 14.0069L86.2922 15.7666" fill="white"/>
<path d="M94.5304 17.9002C94.5304 18.2272 94.507 18.5075 94.4603 18.7333H88.9318C88.9552 19.5509 89.2199 20.1816 89.7338 20.6099C90.201 20.9914 90.8006 21.1861 91.5403 21.1861C92.3579 21.1861 93.1054 21.0537 93.7751 20.7968L94.0632 22.0738C93.2767 22.4164 92.3501 22.5877 91.2834 22.5877C89.9986 22.5877 88.9863 22.2061 88.2544 21.4509C87.5225 20.6956 87.1565 19.6755 87.1565 18.4063C87.1565 17.1605 87.4991 16.1171 88.1843 15.2839C88.9007 14.3962 89.8662 13.9524 91.0809 13.9524C92.2723 13.9524 93.1833 14.3962 93.7906 15.2839C94.2812 16.0003 94.5304 16.8646 94.5304 17.9002V17.9002ZM92.7706 17.4252C92.7862 16.8801 92.6616 16.4052 92.4124 16.008C92.0932 15.4941 91.6026 15.2372 90.9485 15.2372C90.349 15.2372 89.8584 15.4863 89.4847 15.9847C89.181 16.3818 88.9941 16.8646 88.9396 17.4174L92.7706 17.4252V17.4252Z" fill="white"/>
<path d="M31.1015 6.82773H30.136L29.6065 5.16919H27.7689L27.2628 6.82773H26.3284L28.1426 1.17468H29.2639L31.1015 6.82773ZM29.443 4.4684L28.968 2.98895C28.9213 2.84101 28.8279 2.48283 28.6799 1.92219H28.6643C28.602 2.16358 28.5242 2.51397 28.3918 2.98895L27.9246 4.4684H29.443Z" fill="white"/>
<path d="M35.6483 2.74768L34.1066 6.82784H33.2267L31.7317 2.74768H32.705L33.398 4.90456C33.5148 5.26274 33.616 5.60535 33.6939 5.93239H33.7173C33.7873 5.6365 33.8886 5.29389 34.0132 4.90456L34.6984 2.74768H35.6483" fill="white"/>
<path d="M38.9343 6.82773L38.8642 6.36053H38.8408C38.5605 6.73429 38.1634 6.92117 37.6495 6.92117C36.9175 6.92117 36.4036 6.40725 36.4036 5.72204C36.4036 4.71757 37.2757 4.19587 38.7863 4.19587V4.118C38.7863 3.58073 38.4982 3.31599 37.9376 3.31599C37.5327 3.31599 37.1823 3.41721 36.8708 3.61966L36.6839 3.02789C37.0577 2.79429 37.5327 2.67749 38.0855 2.67749C39.1523 2.67749 39.6896 3.23812 39.6896 4.36717V5.86998C39.6896 6.28267 39.7051 6.60192 39.7518 6.8433L38.9343 6.82773V6.82773ZM38.8097 4.79544C37.8052 4.79544 37.2991 5.03682 37.2991 5.62081C37.2991 6.04907 37.556 6.25931 37.922 6.25931C38.3814 6.25931 38.8097 5.90891 38.8097 5.42615V4.79544Z" fill="white"/>
<path d="M41.7067 2.07794C41.403 2.07794 41.1694 1.84434 41.1694 1.53288C41.1694 1.22142 41.4108 0.995605 41.7223 0.995605C42.0337 0.995605 42.2829 1.22142 42.2751 1.53288C42.2751 1.85991 42.0415 2.07794 41.7067 2.07794V2.07794ZM41.2707 2.74758H42.1739V6.81996H41.2707V2.74758V2.74758Z" fill="white"/>
<path d="M43.7854 0.878662H44.6886V6.81981H43.7854V0.878662Z" fill="white"/>
<path d="M48.5353 6.82782L48.4652 6.36063H48.4418C48.1615 6.73439 47.7644 6.92126 47.2505 6.92126C46.5186 6.92126 46.0046 6.40735 46.0046 5.72213C46.0046 4.71767 46.8767 4.19597 48.3873 4.19597V4.1181C48.3873 3.58083 48.0992 3.31608 47.5386 3.31608C47.1337 3.31608 46.7833 3.41731 46.4718 3.61976L46.285 3.0202C46.6587 2.7866 47.1337 2.6698 47.6865 2.6698C48.7533 2.6698 49.2906 3.23043 49.2906 4.35948V5.86229C49.2906 6.27498 49.3061 6.59423 49.3451 6.83561H48.5353V6.82782V6.82782ZM48.4107 4.79553C47.4062 4.79553 46.9001 5.03692 46.9001 5.62091C46.9001 6.04917 47.1571 6.25941 47.523 6.25941C47.9824 6.25941 48.4107 5.90901 48.4107 5.42624V4.79553Z" fill="white"/>
<path d="M52.9654 6.92104C52.3892 6.92104 51.9609 6.67965 51.6806 6.19689H51.665L51.6105 6.8276H50.8397C50.863 6.50056 50.8708 6.13459 50.8708 5.72969V0.878662H51.7818V3.347H51.7974C52.0699 2.89538 52.4982 2.66957 53.0978 2.66957C54.0789 2.66957 54.7641 3.51052 54.7641 4.73301C54.7641 5.99443 54.001 6.92104 52.9654 6.92104V6.92104ZM52.7785 3.37815C52.2568 3.37815 51.7818 3.82977 51.7818 4.46048V5.17685C51.7818 5.73748 52.2101 6.19689 52.7629 6.19689C53.4404 6.19689 53.8453 5.64404 53.8453 4.76416C53.8453 3.93878 53.4248 3.37815 52.7785 3.37815V3.37815Z" fill="white"/>
<path d="M56.1039 0.878662H57.0071V6.81981H56.1039V0.878662Z" fill="white"/>
<path d="M61.9357 5.00584H59.2182C59.2337 5.77671 59.7477 6.21276 60.5029 6.21276C60.9078 6.21276 61.2738 6.14268 61.6009 6.01809L61.741 6.6488C61.3595 6.82011 60.9078 6.89797 60.3784 6.89797C59.1014 6.89797 58.3461 6.09596 58.3461 4.84232C58.3461 3.59647 59.1169 2.6543 60.2771 2.6543C61.3128 2.6543 61.9746 3.42517 61.9746 4.59315C61.9746 4.75667 61.9668 4.89683 61.9357 5.00584V5.00584ZM61.1103 4.35955C61.1103 3.72884 60.7911 3.28501 60.2148 3.28501C59.6931 3.28501 59.2882 3.73663 59.226 4.35955H61.1103Z" fill="white"/>
<path d="M67.4252 6.92126C66.2338 6.92126 65.463 6.0336 65.463 4.82668C65.463 3.56525 66.2494 2.6698 67.4952 2.6698C68.671 2.6698 69.4575 3.51854 69.4575 4.7566C69.4575 6.02581 68.6477 6.92126 67.4252 6.92126ZM67.4641 3.33166C66.81 3.33166 66.3896 3.9468 66.3896 4.79553C66.3896 5.63648 66.8178 6.24383 67.4563 6.24383C68.0948 6.24383 68.5231 5.58976 68.5231 4.77217C68.5153 3.9468 68.1026 3.33166 67.4641 3.33166V3.33166Z" fill="white"/>
<path d="M74.3241 6.8278H73.4209V4.48404C73.4209 3.75989 73.1406 3.40171 72.5955 3.40171C72.0582 3.40171 71.6923 3.86112 71.6923 4.39839V6.82001H70.789V3.91562C70.789 3.55744 70.7812 3.16811 70.7579 2.74764H71.5521L71.591 3.37835H71.6144C71.8558 2.9423 72.3541 2.66199 72.907 2.66199C73.7635 2.66199 74.3241 3.31606 74.3241 4.38282V6.8278Z" fill="white"/>
<path d="M80.2497 3.43282H79.253V5.41061C79.253 5.91674 79.4321 6.16591 79.7825 6.16591C79.9383 6.16591 80.0784 6.15033 80.1874 6.12697L80.2108 6.81219C80.0317 6.88227 79.7981 6.91342 79.51 6.91342C78.7936 6.91342 78.3731 6.5163 78.3731 5.48848V3.43282H77.7814V2.75539H78.3731V2.00788L79.2608 1.73535V2.7476H80.2575V3.43282" fill="white"/>
<path d="M85.0466 6.8276H84.1433V4.49941C84.1433 3.76748 83.863 3.40151 83.318 3.40151C82.8508 3.40151 82.4147 3.72076 82.4147 4.36704V6.81981H81.5115V0.878662H82.4147V3.32364H82.4303C82.7184 2.87981 83.1233 2.66179 83.6528 2.66179C84.5171 2.66179 85.0466 3.33143 85.0466 4.39819V6.8276" fill="white"/>
<path d="M89.6719 5.00584H86.9544C86.97 5.77671 87.4839 6.21276 88.2392 6.21276C88.6441 6.21276 89.0101 6.14268 89.3371 6.01809L89.4773 6.6488C89.0957 6.82011 88.6441 6.89797 88.1146 6.89797C86.8376 6.89797 86.0823 6.09596 86.0823 4.84232C86.0823 3.59647 86.8532 2.6543 88.0134 2.6543C89.049 2.6543 89.7109 3.42517 89.7109 4.59315C89.7109 4.75667 89.7031 4.89683 89.6719 5.00584V5.00584ZM88.8466 4.35955C88.8466 3.72884 88.5273 3.28501 87.9511 3.28501C87.4294 3.28501 87.0167 3.73663 86.9622 4.35955H88.8466Z" fill="white"/>
</svg>
